# File created by Blade
# Date/Time:  Mon Sep 29 17:58:21 2014
# Frame Rate: 120.000 fps
#------------------------------------------------------
:FULLY-SPECIFIED
:DEGREES
953
root -0.038895 11.326659 -7.222687 42.193496 3.240440 -0.109576
Spine 48.102329 6.838041 1.075843
Head 47.612854 -13.307870 -2.052557
LeftShoulder 16.080101 -25.518520 21.747787
LeftArm 34.756422 28.371238 -26.440975
LeftForeArm 63.402900 -0.000000 84.124596
LeftHand -36.789409 -0.000000 43.411383
LeftHandThumb1 -26.253704 0.000000 33.147579
RightShoulder 4.627366 50.085612 -29.594645
RightArm 10.921458 -53.513344 47.637959
RightForeArm -56.053079 0.000000 82.283897
RightHand -7.227946 -0.000000 -30.160639
RightHandThumb1 -24.326973 -0.000000 -32.862282
LeftUpLeg -137.142878 44.920175 -11.801984
LeftLeg 134.154585 -0.000000 -0.000000
LeftFoot -31.820119 -16.874378 -21.080812
LeftToeBase 6.174600 -0.000000 -0.000000
RightUpLeg -130.997272 -37.472554 2.175317
RightLeg 135.854981 -0.000000 -0.000000
RightFoot -35.624901 2.184086 20.495369
RightToeBase 2.763883 -0.000000 -0.000000
954
root -0.043645 11.333552 -7.218223 42.226711 3.230827 -0.098365
Spine 48.070864 6.812693 1.011465
Head 47.692825 -13.222235 -2.068068
LeftShoulder 16.039598 -25.577072 21.704369
LeftArm 34.724658 28.455399 -26.429959
LeftForeArm 63.413085 0.000000 84.082256
LeftHand -36.780956 -0.000000 43.492218
LeftHandThumb1 -26.253704 0.000000 33.147579
RightShoulder 4.687184 50.236100 -29.546777
RightArm 10.804597 -53.605131 47.794382
RightForeArm -56.099697 -0.000000 82.229512
RightHand -7.237344 -0.000000 -30.112005
RightHandThumb1 -24.326973 -0.000000 -32.862282
LeftUpLeg -137.173999 44.926963 -11.860456
LeftLeg 134.132421 -0.000000 -0.000000
LeftFoot -31.797976 -16.851998 -21.031027
LeftToeBase 6.135720 -0.000000 -0.000000
RightUpLeg -131.012725 -37.444390 2.178562
RightLeg 135.857624 -0.000000 -0.000000
RightFoot -35.619514 2.158007 20.510248
RightToeBase 2.751480 -0.000000 -0.000000
955
root -0.047819 11.339072 -7.215442 42.241717 3.250187 -0.089296
Spine 48.064629 6.778318 1.001007
Head 47.727030 -13.172660 -2.104638
LeftShoulder 16.021573 -25.652339 21.684751
LeftArm 34.683964 28.533397 -26.465958
LeftForeArm 63.416826 -0.000000 84.048971
LeftHand -36.781347 -0.000000 43.540200
LeftHandThumb1 -26.253704 0.000000 33.147579
RightShoulder 4.702511 50.334858 -29.524982
RightArm 10.780028 -53.673579 47.835349
RightForeArm -56.071937 -0.000000 82.190920
RightHand -7.160833 0.000000 -30.130854
RightHandThumb1 -24.326973 -0.000000 -32.862282
LeftUpLeg -137.178424 44.903935 -11.874532
LeftLeg 134.118241 -0.000000 -0.000000
LeftFoot -31.764338 -16.750167 -20.875671
LeftToeBase 5.812562 -0.000000 -0.000000
RightUpLeg -131.007521 -37.445790 2.183131
RightLeg 135.864893 -0.000000 -0.000000
RightFoot -35.607939 2.145801 20.515490
RightToeBase 2.715723 -0.000000 -0.000000
956
root -0.056309 11.346545 -7.218351 42.299000 3.298999 -0.095074
Spine 48.012608 6.752372 1.031259
Head 47.752053 -13.135090 -2.085433
LeftShoulder 15.999390 -25.730660 21.647629
LeftArm 34.700223 28.612463 -26.450153
LeftForeArm 63.423595 0.000000 84.010130
LeftHand -36.778267 0.000000 43.498716
LeftHandThumb1 -26.253704 0.000000 33.147579
RightShoulder 4.688967 50.439793 -29.542582
RightArm 10.718399 -53.756887 47.901143
RightForeArm -56.088155 0.000000 82.166742
RightHand -7.178399 -0.000000 -30.086611
RightHandThumb1 -24.326973 -0.000000 -32.862282
LeftUpLeg -137.196092 44.853165 -11.831125
LeftLeg 134.060022 -0.000000 -0.000000
LeftFoot -31.758869 -16.826476 -21.076453
LeftToeBase 6.120358 -0.000000 -0.000000
RightUpLeg -131.044247 -37.428620 2.233348
RightLeg 135.867359 -0.000000 -0.000000
RightFoot -35.607447 2.141916 20.539497
RightToeBase 2.693745 -0.000000 -0.000000
957
root -0.060622 11.350858 -7.217010 42.289341 3.315652 -0.091326
Spine 48.043951 6.792872 1.062574
Head 47.724753 -13.226934 -2.014980
LeftShoulder 16.026952 -25.798967 21.672375
LeftArm 34.725592 28.648244 -26.477556
LeftForeArm 63.419019 -0.000000 83.966521
LeftHand -36.857925 -0.000000 43.530942
LeftHandThumb1 -26.253704 0.000000 33.147579
RightShoulder 4.668036 50.462796 -29.551365
RightArm 10.673999 -53.765000 47.896999
RightForeArm -56.161608 -0.000000 82.152019
RightHand -7.194818 0.000000 -30.172922
RightHandThumb1 -24.326973 -0.000000 -32.862282
LeftUpLeg -137.167640 44.840911 -11.809761
LeftLeg 134.035341 -0.000000 -0.000000
LeftFoot -31.748913 -16.818333 -21.110171
LeftToeBase 6.128677 -0.000000 -0.000000
RightUpLeg -131.010761 -37.430563 2.220011
RightLeg 135.877313 -0.000000 -0.000000
RightFoot -35.645518 2.228739 20.657455
RightToeBase 2.884382 -0.000000 -0.000000
958
root -0.065629 11.355759 -7.214019 42.286944 3.330270 -0.085352
Spine 48.060159 6.804914 1.073727
Head 47.713629 -13.263463 -2.002876
LeftShoulder 16.032440 -25.880731 21.640374
LeftArm 34.758246 28.718354 -26.460254
LeftForeArm 63.420779 -0.000000 83.887452
LeftHand -36.848120 -0.000000 43.640415
LeftHandThumb1 -26.253704 0.000000 33.147579
RightShoulder 4.663723 50.533459 -29.536865
RightArm 10.643479 -53.793019 47.911950
RightForeArm -56.237984 -0.000000 82.130592
RightHand -7.160697 -0.000000 -30.125943
RightHandThumb1 -24.326973 -0.000000 -32.862282
LeftUpLeg -137.142042 44.834284 -11.801288
LeftLeg 134.012228 -0.000000 -0.000000
LeftFoot -31.752283 -16.783233 -21.061264
LeftToeBase 6.099777 -0.000000 -0.000000
RightUpLeg -130.984844 -37.411944 2.208823
RightLeg 135.866887 -0.000000 -0.000000
RightFoot -35.608562 2.071662 20.588344
RightToeBase 2.673170 -0.000000 -0.000000
959
root -0.070977 11.359615 -7.210547 42.289811 3.326791 -0.087013
Spine 48.061439 6.809668 1.062639
Head 47.748014 -13.250157 -2.040473
LeftShoulder 16.027903 -25.969744 21.591489
LeftArm 34.748669 28.816564 -26.446835
LeftForeArm 63.448757 0.000000 83.843631
LeftHand -36.921635 0.000000 43.694555
LeftHandThumb1 -26.253704 0.000000 33.147579
RightShoulder 4.697090 50.675454 -29.518168
RightArm 10.506018 -53.840855 48.063018
RightForeArm -56.280740 -0.000000 82.088974
RightHand -7.124821 0.000000 -30.077979
RightHandThumb1 -24.326973 -0.000000 -32.862282
LeftUpLeg -137.131795 44.859859 -11.809713
LeftLeg 133.992756 -0.000000 -0.000000
LeftFoot -31.748436 -16.795288 -21.036099
LeftToeBase 6.100582 -0.000000 -0.000000
RightUpLeg -130.956283 -37.383828 2.192171
RightLeg 135.886254 -0.000000 -0.000000
RightFoot -35.629125 2.101985 20.604036
RightToeBase 2.686777 -0.000000 -0.000000
960
root -0.075410 11.362408 -7.209703 42.303457 3.345712 -0.079219
Spine 48.041352 6.776059 1.057308
Head 47.767215 -13.206783 -2.075431
LeftShoulder 16.001513 -25.999812 21.563656
LeftArm 34.775986 28.869377 -26.421834
LeftForeArm 63.427500 -0.000000 83.788556
LeftHand -36.899296 0.000000 43.742434
LeftHandThumb1 -26.253704 0.000000 33.147579
RightShoulder 4.737172 50.780520 -29.522451
RightArm 10.415653 -53.874869 48.191234
RightForeArm -56.334271 0.000000 82.032066
RightHand -7.061378 -0.000000 -30.136023
RightHandThumb1 -24.326973 -0.000000 -32.862282
LeftUpLeg -137.137558 44.843397 -11.811232
LeftLeg 133.970196 -0.000000 -0.000000
LeftFoot -31.725539 -16.787821 -21.040054
LeftToeBase 6.054074 -0.000000 -0.000000
RightUpLeg -130.937819 -37.384545 2.172428
RightLeg 135.895524 -0.000000 -0.000000
RightFoot -35.632307 2.114065 20.616962
RightToeBase 2.687074 -0.000000 -0.000000
961
root -0.079354 11.364936 -7.208169 42.310291 3.364530 -0.069927
Spine 48.030283 6.765702 1.064085
Head 47.777324 -13.205024 -2.084229
LeftShoulder 15.996636 -26.065860 21.540404
LeftArm 34.808316 28.952935 -26.426899
LeftForeArm 63.463716 -0.000000 83.699258
LeftHand -36.931104 -0.000000 43.880120
LeftHandThumb1 -26.253704 0.000000 33.147579
RightShoulder 4.761863 50.865589 -29.517372
RightArm 10.330761 -53.923506 48.284796
RightForeArm -56.348368 0.000000 82.012154
RightHand -7.165766 -0.000000 -30.153598
RightHandThumb1 -24.326973 -0.000000 -32.862282
LeftUpLeg -137.128958 44.825763 -11.806169
LeftLeg 133.951755 -0.000000 -0.000000
LeftFoot -31.736231 -16.786895 -21.055616
LeftToeBase 6.137968 -0.000000 -0.000000
RightUpLeg -130.929812 -37.390754 2.170205
RightLeg 135.903528 -0.000000 -0.000000
RightFoot -35.637808 2.091709 20.611331
RightToeBase 2.671552 -0.000000 -0.000000
962
root -0.082339 11.365410 -7.201311 42.307664 3.337433 -0.053653
Spine 48.015262 6.743502 0.994301
Head 47.828404 -13.123120 -2.163081
LeftShoulder 15.924433 -26.068825 21.496007
LeftArm 34.876026 29.020940 -26.359454
LeftForeArm 63.463473 -0.000000 83.616031
LeftHand -37.007994 -0.000000 43.990722
LeftHandThumb1 -26.253704 0.000000 33.147579
RightShoulder 4.848682 51.032129 -29.467216
RightArm 10.172953 -53.990879 48.517367
RightForeArm -56.398473 -0.000000 81.925134
RightHand -7.110648 0.000000 -30.256214
RightHandThumb1 -24.326973 -0.000000 -32.862282
LeftUpLeg -137.167450 44.837412 -11.902967
LeftLeg 133.954758 -0.000000 -0.000000
LeftFoot -31.731379 -16.588932 -20.804629
LeftToeBase 5.793003 -0.000000 -0.000000
RightUpLeg -130.901087 -37.381292 2.114929
RightLeg 135.921545 -0.000000 -0.000000
RightFoot -35.642927 2.117253 20.627074
RightToeBase 2.670756 -0.000000 -0.000000
963
root -0.087128 11.367071 -7.199607 42.309322 3.344914 -0.047959
Spine 48.005722 6.762953 0.996636
Head 47.819690 -13.152533 -2.131367
LeftShoulder 15.930697 -26.146136 21.472302
LeftArm 34.918061 29.112758 -26.352475
LeftForeArm 63.459327 -0.000000 83.530860
LeftHand -37.027394 -0.000000 44.115952
LeftHandThumb1 -26.253704 0.000000 33.147579
RightShoulder 4.877770 51.099474 -29.451281
RightArm 10.069340 -54.018568 48.637710
RightForeArm -56.380633 0.000000 81.886183
RightHand -7.129412 -0.000000 -30.318877
RightHandThumb1 -24.326973 -0.000000 -32.862282
LeftUpLeg -137.176035 44.833788 -11.911930
LeftLeg 133.932975 -0.000000 -0.000000
LeftFoot -31.717134 -16.633103 -20.955799
LeftToeBase 6.044062 -0.000000 -0.000000
RightUpLeg -130.879118 -37.370932 2.088946
RightLeg 135.934060 -0.000000 -0.000000
RightFoot -35.643292 2.116066 20.643212
RightToeBase 2.655301 -0.000000 -0.000000
964
root -0.094188 11.368615 -7.203291 42.335534 3.396919 -0.061540
Spine 47.966363 6.780050 1.068609
Head 47.789975 -13.241135 -2.063382
LeftShoulder 15.967417 -26.322392 21.473518
LeftArm 34.892276 29.272143 -26.470876
LeftForeArm 63.513114 -0.000000 83.440551
LeftHand -37.081152 -0.000000 44.197996
LeftHandThumb1 -26.253704 0.000000 33.147579
RightShoulder 4.881045 51.159715 -29.485166
RightArm 9.895701 -54.064811 48.803870
RightForeArm -56.341792 -0.000000 81.854525
RightHand -7.160377 0.000000 -30.429000
RightHandThumb1 -24.326973 -0.000000 -32.862282
LeftUpLeg -137.191230 44.789185 -11.853949
LeftLeg 133.899521 -0.000000 -0.000000
LeftFoot -31.729483 -16.600059 -20.970118
LeftToeBase 6.082088 -0.000000 -0.000000
RightUpLeg -130.900414 -37.358801 2.135705
RightLeg 135.943083 -0.000000 -0.000000
RightFoot -35.650985 2.067670 20.640345
RightToeBase 2.644300 -0.000000 -0.000000
